<svg width="99" height="87" viewBox="0 0 99 87" fill="none" xmlns="http://www.w3.org/2000/svg">
<path d="M88.2374 25.3C88.0374 25.0875 87.8249 24.875 87.6124 24.675C87.3999 24.475 87.1999 24.25 86.9874 24.05C86.7749 23.85 86.5749 23.625 86.3624 23.425C86.1499 23.225 85.9499 23 85.7374 22.8C85.5249 22.6 85.3249 22.375 85.1124 22.175C84.8999 21.975 84.6999 21.75 84.4874 21.55C84.2749 21.35 84.0749 21.125 83.8624 20.925C90.0626 27.0184 93.6146 35.3078 93.7499 44C93.7499 64.7125 72.7249 81.5625 46.8749 81.5625C32.3999 81.5625 19.4499 76.275 10.8374 67.9875L11.4624 68.6125L12.0874 69.2375L12.7124 69.8625L13.3374 70.4875L13.9624 71.1125L14.5874 71.7375L15.2124 72.3625C23.8124 81 37.0499 86.5625 51.8749 86.5625C77.7249 86.5625 98.7499 69.7125 98.7499 49.0625C98.7499 40.2375 94.9499 31.875 88.2374 25.3Z" fill="black"/>
<path d="M90.625 44C90.625 63.0125 71.0375 78.425 46.875 78.425C22.7125 78.425 3.125 63.0125 3.125 44C3.125 32.2125 10.625 21.8 22.15 15.625C33.675 9.45 40.85 3.125 46.875 3.125C52.9 3.125 58.05 8.2875 71.6 15.625C83.125 21.8 90.625 32.2125 90.625 44Z" fill="#FBF0DF"/>
<path d="M90.6251 44C90.619 41.5576 90.2826 39.1273 89.6251 36.775C86.2126 78.4 35.4376 80.4 15.4751 67.95C24.4489 74.9055 35.5227 78.5997 46.8751 78.425C71.0001 78.425 90.6251 62.9875 90.6251 44Z" fill="#F6DECE"/>
<path d="M30.0375 13.3375C35.625 9.9875 43.05 3.7 50.35 3.6875C49.227 3.3245 48.0552 3.13482 46.875 3.125C43.85 3.125 40.625 4.6875 36.5625 7.0375C35.15 7.8625 33.6875 8.775 32.1375 9.725C29.225 11.525 25.8875 13.5625 22.1375 15.6C10.2375 22.0375 3.125 32.65 3.125 44C3.125 44.5 3.125 45 3.125 45.4875C10.7 18.725 24.4625 16.6875 30.0375 13.3375Z" fill="#FFFEFC"/>
<path fill-rule="evenodd" clip-rule="evenodd" d="M43.2751 6.28749C43.2926 9.23902 42.6729 12.1596 41.4584 14.8497C40.2438 17.5398 38.463 19.9361 36.2376 21.875C35.8876 22.1875 36.1626 22.7875 36.6126 22.6125C40.8251 20.975 46.5126 16.075 44.1126 6.18749C44.0126 5.62499 43.2751 5.77499 43.2751 6.28749ZM46.1126 6.28749C47.6421 8.78302 48.6138 11.5798 48.9612 14.486C49.3085 17.3923 49.0233 20.3393 48.1251 23.125C47.9751 23.5625 48.5126 23.9375 48.8126 23.575C51.5501 20.075 53.9376 13.125 46.7876 5.62499C46.4251 5.29999 45.8626 5.79999 46.1126 6.23749V6.28749ZM49.5626 6.07499C51.9578 7.77068 53.9615 9.96028 55.4385 12.4961C56.9156 15.0319 57.8317 17.855 58.1251 20.775C58.1124 20.8802 58.1408 20.9863 58.2042 21.0712C58.2676 21.1561 58.3613 21.2133 58.4658 21.231C58.5703 21.2487 58.6776 21.2254 58.7654 21.1661C58.8533 21.1068 58.9149 21.016 58.9376 20.9125C60.0876 16.55 59.4376 9.11249 49.9751 5.24999C49.4751 5.04999 49.1501 5.72499 49.5626 6.02499V6.07499ZM26.4876 19.075C29.3367 18.2238 31.9746 16.7821 34.2295 14.8438C36.4844 12.9055 38.3058 10.514 39.5751 7.82499C39.8001 7.37499 40.5126 7.54999 40.4001 8.04999C38.2376 18.05 31.0001 20.1375 26.5001 19.8625C26.0251 19.875 26.0376 19.2125 26.4876 19.075Z" fill="#CCBEA7"/>
<path d="M46.875 81.5625C21.025 81.5625 0 64.7125 0 44C0 31.5 7.725 19.8375 20.6625 12.85C24.4125 10.85 27.625 8.8375 30.4875 7.075C32.0625 6.1 33.55 5.1875 34.9875 4.3375C39.375 1.7375 43.125 0 46.875 0C50.625 0 53.9 1.5 58 3.925C59.25 4.6375 60.5 5.4125 61.8375 6.2625C64.95 8.1875 68.4625 10.3625 73.0875 12.85C86.025 19.8375 93.75 31.4875 93.75 44C93.75 64.7125 72.725 81.5625 46.875 81.5625ZM46.875 3.125C43.85 3.125 40.625 4.6875 36.5625 7.0375C35.15 7.8625 33.6875 8.775 32.1375 9.725C29.225 11.525 25.8875 13.5625 22.1375 15.6C10.2375 22.0375 3.125 32.65 3.125 44C3.125 62.9875 22.75 78.4375 46.875 78.4375C71 78.4375 90.625 62.9875 90.625 44C90.625 32.65 83.5125 22.0375 71.6 15.625C66.875 13.125 63.1875 10.775 60.2 8.925C58.8375 8.0875 57.5875 7.3125 56.45 6.625C52.6625 4.375 49.9 3.125 46.875 3.125Z" fill="black"/>
<path d="M55.6875 53.125C55.126 55.4249 53.8477 57.4867 52.0375 59.0125C50.6784 60.3299 48.9191 61.1568 47.0375 61.3625C45.0994 61.1894 43.2783 60.3605 41.875 59.0125C40.0833 57.4795 38.823 55.4185 38.275 53.125C38.2568 52.9889 38.2701 52.8503 38.3137 52.7201C38.3574 52.5899 38.4302 52.4713 38.5268 52.3736C38.6233 52.2759 38.7409 52.2015 38.8706 52.1563C39.0003 52.111 39.1386 52.096 39.275 52.1125H54.7C54.8354 52.0981 54.9723 52.1146 55.1004 52.1608C55.2285 52.207 55.3444 52.2816 55.4395 52.3791C55.5346 52.4765 55.6063 52.5943 55.6492 52.7235C55.6922 52.8527 55.7053 52.99 55.6875 53.125Z" fill="#B71422"/>
<path d="M41.8749 59.1125C43.2753 60.4612 45.0898 61.298 47.0248 61.4875C48.9555 61.2953 50.7652 60.4587 52.1624 59.1125C52.6093 58.6959 53.0269 58.2491 53.4124 57.775C52.6423 56.9014 51.7017 56.1946 50.6484 55.698C49.595 55.2015 48.4512 54.9256 47.2874 54.8875C46.042 54.917 44.8224 55.2487 43.7337 55.854C42.6449 56.4594 41.7196 57.3202 41.0374 58.3625C41.3249 58.625 41.5749 58.875 41.8749 59.1125Z" fill="#FF6164"/>
<path d="M42.075 58.125C42.6947 57.324 43.4879 56.6738 44.3951 56.2235C45.3023 55.7732 46.2997 55.5343 47.3124 55.525C49.1844 55.5802 50.968 56.3338 52.3124 57.6375C52.5999 57.325 52.8749 57 53.1374 56.675C51.5472 55.1605 49.4457 54.2994 47.25 54.2625C46.0765 54.2726 44.9199 54.5424 43.8631 55.0524C42.8062 55.5625 41.8754 56.3002 41.1375 57.2125C41.433 57.5336 41.746 57.8382 42.075 58.125Z" fill="black"/>
<path d="M46.9874 62.1125C44.9045 61.93 42.9443 61.049 41.4249 59.6125C39.49 57.9759 38.1281 55.7644 37.5374 53.3C37.4951 53.0806 37.5023 52.8545 37.5585 52.6382C37.6147 52.4219 37.7186 52.221 37.8624 52.05C38.0338 51.8431 38.2501 51.6781 38.4949 51.5677C38.7397 51.4572 39.0065 51.4041 39.2749 51.4125H54.6999C54.968 51.4068 55.2339 51.4611 55.4783 51.5714C55.7227 51.6817 55.9393 51.8452 56.1124 52.05C56.2549 52.2216 56.357 52.423 56.4111 52.6394C56.4652 52.8558 56.4699 53.0815 56.4249 53.3C55.8343 55.7644 54.4724 57.9759 52.5374 59.6125C51.0214 61.0464 49.066 61.9272 46.9874 62.1125ZM39.2749 52.8625C39.0749 52.8625 39.0249 52.95 39.0124 52.975C39.5408 55.1121 40.7361 57.0254 42.4249 58.4375C43.6599 59.6542 45.2655 60.424 46.9874 60.625C48.7049 60.4263 50.3088 59.6661 51.5499 58.4625C53.2335 57.048 54.4241 55.1351 54.9499 53C54.9227 52.96 54.8849 52.9284 54.8408 52.9085C54.7967 52.8886 54.7479 52.8814 54.6999 52.8875L39.2749 52.8625Z" fill="black"/>
<path d="M65.8999 53.9C69.9385 53.9 73.2124 51.9748 73.2124 49.6C73.2124 47.2252 69.9385 45.3 65.8999 45.3C61.8613 45.3 58.5874 47.2252 58.5874 49.6C58.5874 51.9748 61.8613 53.9 65.8999 53.9Z" fill="#FEBBD0"/>
<path d="M28.0625 53.9C32.1011 53.9 35.375 51.9748 35.375 49.6C35.375 47.2252 32.1011 45.3 28.0625 45.3C24.0239 45.3 20.75 47.2252 20.75 49.6C20.75 51.9748 24.0239 53.9 28.0625 53.9Z" fill="#FEBBD0"/>
<path fill-rule="evenodd" clip-rule="evenodd" d="M31.5 47.875C32.8627 47.8774 34.1956 47.4756 35.3299 46.7203C36.4642 45.965 37.3489 44.8902 37.8721 43.6319C38.3953 42.3736 38.5335 40.9883 38.2692 39.6515C38.0048 38.3146 37.3499 37.0862 36.3871 36.1217C35.4244 35.1572 34.1972 34.5 32.8608 34.2332C31.5244 33.9665 30.1389 34.1021 28.8797 34.6231C27.6204 35.144 26.544 36.0268 25.7866 37.1597C25.0293 38.2926 24.625 39.6247 24.625 40.9875C24.625 42.812 25.3489 44.562 26.6379 45.8533C27.9268 47.1446 29.6755 47.8717 31.5 47.875ZM62.4625 47.875C63.8268 47.8849 65.1633 47.4894 66.3025 46.7386C67.4417 45.9878 68.3323 44.9156 68.8613 43.658C69.3902 42.4004 69.5338 41.014 69.2737 39.6747C69.0136 38.3354 68.3616 37.1035 67.4004 36.1352C66.4392 35.167 65.2121 34.506 63.8747 34.2362C62.5373 33.9664 61.1499 34.0998 59.8884 34.6196C58.627 35.1394 57.5484 36.0221 56.7893 37.1558C56.0303 38.2895 55.625 39.6231 55.625 40.9875C55.6217 42.8065 56.3394 44.5527 57.6209 45.8437C58.9025 47.1346 60.6435 47.865 62.4625 47.875Z" fill="black"/>
<path fill-rule="evenodd" clip-rule="evenodd" d="M29.375 41.425C29.8873 41.4274 30.3888 41.2778 30.816 40.995C31.2431 40.7122 31.5767 40.3089 31.7745 39.8364C31.9722 39.3638 32.0253 38.8431 31.9268 38.3404C31.8284 37.8376 31.583 37.3754 31.2216 37.0123C30.8602 36.6492 30.3992 36.4015 29.897 36.3006C29.3947 36.1998 28.8738 36.2503 28.4003 36.4458C27.9267 36.6412 27.5219 36.9729 27.237 37.3986C26.9521 37.8244 26.8001 38.3252 26.8 38.8375C26.8 39.5216 27.0709 40.1778 27.5535 40.6627C28.036 41.1476 28.691 41.4217 29.375 41.425ZM60.3375 41.425C60.8498 41.4274 61.3513 41.2778 61.7785 40.995C62.2056 40.7122 62.5392 40.3089 62.737 39.8364C62.9347 39.3638 62.9878 38.8431 62.8893 38.3404C62.7909 37.8376 62.5455 37.3754 62.1841 37.0123C61.8227 36.6492 61.3617 36.4015 60.8595 36.3006C60.3572 36.1998 59.8363 36.2503 59.3628 36.4458C58.8892 36.6412 58.4844 36.9729 58.1995 37.3986C57.9146 37.8244 57.7626 38.3252 57.7625 38.8375C57.7625 39.5173 58.0299 40.1698 58.5071 40.654C58.9843 41.1382 59.6328 41.4151 60.3125 41.425H60.3375Z" fill="white"/>
</svg>
