<svg width="100" height="92" viewBox="0 0 100 92" fill="none" xmlns="http://www.w3.org/2000/svg">
  <path
    fill-rule="evenodd"
    clip-rule="evenodd"
    d="M4.60343 70.9789C1.64635 64.5977 -0.00402832 57.4902 -0.00402832 50C-0.00402832 48.0616 0.106641 46.1486 0.321647 44.2675C0.539986 42.3665 0.863662 40.5011 1.28601 38.6764C3.6594 28.4414 9.17955 19.4065 16.7704 12.6483C23.1463 6.97952 30.9568 2.93474 39.519 1.10136C42.8981 0.379677 46.4029 0 49.996 0C51.2553 0.00133337 52.5237 0.049668 53.7997 0.147004C59.8512 0.609016 65.5697 2.13239 70.7865 4.52079C74.995 6.44951 78.8901 8.94557 82.3742 11.9106C91.1254 19.3655 97.2286 29.7501 99.2583 41.4034C99.7433 44.1965 99.996 47.0689 99.996 50C99.995 51.2614 99.9463 52.5317 99.8486 53.8098C99.48 58.6396 98.4349 63.2574 96.8139 67.5775C94.5512 73.5946 91.1607 79.0618 86.901 83.7206C81.3605 89.3777 74.3196 91.8951 68.4391 91.7904C64.163 91.7141 59.9792 90.0127 57.0882 87.5233C52.9581 83.9669 51.29 79.9015 50.718 75.365C50.576 74.2373 50.6593 71.1646 51.2463 69.0368C51.6837 67.4508 52.793 64.388 54.4154 63.0483C52.5177 62.231 50.075 60.4509 49.305 59.5966C49.1156 59.3866 49.1403 59.0576 49.3096 58.8312C49.4793 58.6052 49.7763 58.5159 50.0426 58.6116C51.6744 59.1716 53.6614 59.7239 55.7568 60.0746C58.5125 60.5353 61.9396 61.1153 65.4114 61.286C73.8766 61.7016 82.7188 57.9022 85.4633 50.3423C88.2073 42.7825 87.1426 35.3049 77.2977 30.8198C67.4524 26.3344 62.9047 21.0012 54.9501 17.7848C49.7543 15.6838 43.9715 16.9311 38.0343 20.2122C22.0426 29.0498 7.71518 56.9729 14.3197 82.8429C14.414 83.1969 14.2547 83.5696 13.9337 83.7459C13.6327 83.9109 13.2627 83.8639 13.0133 83.6356C11.0913 81.5235 9.34722 79.2468 7.80551 76.8284C6.61282 74.957 5.54212 73.0033 4.60343 70.9789Z"
    fill="#F97316"
  />
  <path
    fill-rule="evenodd"
    clip-rule="evenodd"
    d="M48.2063 21.2559C50.9037 21.0446 53.2571 23.3466 53.6628 26.4084C54.2041 30.4868 52.7071 34.6999 47.7849 34.7969C43.5801 34.8809 42.3061 30.6405 42.5848 28.0717C42.8615 25.503 44.9789 21.5092 48.2063 21.2559Z"
    fill="#F97316"
  />
</svg>
