<svg width="100" height="38" viewBox="0 0 100 38" fill="none" xmlns="http://www.w3.org/2000/svg">
<path d="M7.54671 11.3124C7.35195 11.3124 7.30326 11.215 7.40064 11.069L8.4231 9.7544C8.52048 9.60833 8.76392 9.51095 8.95867 9.51095H26.3404C26.5352 9.51095 26.5839 9.65702 26.4865 9.80309L25.6588 11.069C25.5614 11.215 25.318 11.3611 25.1719 11.3611L7.54671 11.3124ZM0.194754 15.7918C0 15.7918 -0.0486884 15.6944 0.0486884 15.5483L1.07115 14.2337C1.16852 14.0877 1.41196 13.9903 1.60672 13.9903H23.8086C24.0034 13.9903 24.1008 14.1364 24.0521 14.2824L23.6626 15.4509C23.6139 15.6457 23.4191 15.7431 23.2244 15.7431L0.194754 15.7918ZM11.9774 20.2711C11.7826 20.2711 11.7339 20.125 11.8313 19.979L12.5129 18.7618C12.6103 18.6157 12.8051 18.4696 12.9998 18.4696H22.7375C22.9323 18.4696 23.0296 18.6157 23.0296 18.8104L22.9323 19.979C22.9323 20.1737 22.7375 20.3198 22.5914 20.3198L11.9774 20.2711ZM62.5159 10.436C59.4486 11.215 57.355 11.7993 54.3363 12.5783C53.606 12.7731 53.5573 12.8218 52.9243 12.0914C52.194 11.2637 51.6584 10.7282 50.636 10.2413C47.5686 8.73194 44.5986 9.17014 41.8234 10.9716C38.5126 13.1139 36.8085 16.2786 36.8571 20.2224C36.9058 24.1175 39.5837 27.3309 43.4301 27.8665C46.7409 28.3047 49.5161 27.1362 51.7071 24.6531C52.1453 24.1175 52.5348 23.5332 53.0217 22.8516H43.6248C42.6024 22.8516 42.3589 22.2186 42.6998 21.3909C43.3327 19.8816 44.5012 17.3498 45.1829 16.0839C45.3289 15.7918 45.6698 15.3049 46.4001 15.3049H64.1227C64.0253 16.6195 64.0253 17.9341 63.8305 19.2486C63.295 22.7542 61.9804 25.9676 59.8381 28.7916C56.3325 33.417 51.7558 36.2896 45.9619 37.0686C41.1904 37.7015 36.7598 36.7765 32.8647 33.8552C29.2617 31.1286 27.2168 27.5257 26.6813 23.0463C26.0483 17.7393 27.6063 12.9678 30.8198 8.78063C34.2767 4.25261 38.8534 1.37999 44.4525 0.357532C49.0293 -0.470171 53.4112 0.0654014 57.355 2.74326C59.9355 4.44736 61.7856 6.7844 63.0028 9.60833C63.295 10.0465 63.1002 10.29 62.5159 10.436Z" fill="#00ACD7"/>
<path d="M78.6318 37.3608C74.2012 37.2634 70.16 35.9975 66.7518 33.0762C63.8792 30.5931 62.0778 27.4284 61.4935 23.6794C60.6171 18.1776 62.1264 13.3087 65.4372 8.97546C68.9915 4.30137 73.2761 1.86695 79.07 0.844497C84.0362 -0.0318943 88.7103 0.45499 92.9462 3.32761C96.7926 5.95678 99.1783 9.51104 99.8112 14.1851C100.639 20.7581 98.7401 26.1138 94.2121 30.6905C90.9986 33.9526 87.0549 35.9975 82.5269 36.9226C81.2123 37.1661 79.8977 37.2147 78.6318 37.3608ZM90.2196 17.6907C90.1709 17.0577 90.1709 16.5709 90.0736 16.084C89.1972 11.2638 84.7665 8.53727 80.1411 9.60841C75.6131 10.6309 72.6918 13.5035 71.6207 18.0802C70.7443 21.8779 72.5944 25.7243 76.1 27.2823C78.7779 28.4508 81.4557 28.3048 84.0362 26.9902C87.8826 24.994 89.9762 21.8779 90.2196 17.6907Z" fill="#00ACD7"/>
</svg>
