<svg width="89" height="100" viewBox="0 0 89 100" fill="none" xmlns="http://www.w3.org/2000/svg">
<path fill-rule="evenodd" clip-rule="evenodd" d="M52.9725 11.4443L73.5073 23.3008C74.1001 22.6735 74.7805 22.1351 75.5272 21.7023C79.7858 19.254 85.2179 20.7077 87.6916 24.9666C90.14 29.2256 88.6863 34.6573 84.4274 37.131C83.6862 37.5578 82.8875 37.8759 82.0557 38.0754V61.7969C82.8784 61.9968 83.6684 62.3126 84.402 62.7351C88.6863 65.2088 90.14 70.6409 87.6663 74.8998C85.2179 79.1584 79.7605 80.6121 75.5015 78.1641C74.6764 77.6907 73.9332 77.0873 73.3004 76.3771L52.8906 88.1606C53.1895 89.0657 53.3413 90.0128 53.3402 90.9659C53.3402 95.8623 49.3621 99.8664 44.4401 99.8664C39.518 99.8664 35.5399 95.8876 35.5399 90.9659C35.5399 90.091 35.6656 89.2459 35.9 88.4478L15.3708 76.5948C14.7844 77.2096 14.1137 77.738 13.3786 78.1641C9.09431 80.6121 3.66222 79.1584 1.21386 74.8998C-1.23416 70.6409 0.219512 65.2088 4.47811 62.7351C5.21175 62.3125 6.00176 61.9966 6.8244 61.7966V38.0754C5.99268 37.8759 5.19396 37.5578 4.45277 37.131C0.19382 34.683 -1.25985 29.2256 1.18851 24.9666C3.63688 20.7077 9.09397 19.254 13.3529 21.7023C14.0956 22.1328 14.7726 22.6678 15.3631 23.2907L35.9038 11.4311C35.6616 10.6093 35.5391 9.75691 35.5399 8.90015C35.5399 3.97877 39.518 0 44.4401 0C49.3621 0 53.3402 3.97842 53.3402 8.90015C53.3402 9.78479 53.2118 10.6385 52.9725 11.4443ZM50.8332 15.0974L71.4169 26.9817C71.0891 28.1274 70.9951 29.3274 71.1405 30.5102C71.2858 31.693 71.6675 32.8345 72.263 33.8668C73.516 36.0464 75.5571 37.4914 77.8225 38.0545V61.8056C77.7069 61.8338 77.5919 61.8647 77.4777 61.8973L50.594 15.3353C50.6752 15.2575 50.7551 15.178 50.8332 15.0974ZM38.2917 15.3405L11.4083 61.9018C11.2921 61.8682 11.1752 61.8369 11.0577 61.8081V38.0545C13.3231 37.4914 15.3642 36.0464 16.6172 33.8668C17.2138 32.8325 17.5959 31.6886 17.7406 30.5034C17.8854 29.3182 17.7899 28.116 17.4598 26.9685L38.0376 15.0877C38.1206 15.1735 38.2053 15.2582 38.2917 15.3405ZM46.927 17.4496L73.8041 64.0005C73.1885 64.588 72.6608 65.2612 72.2373 65.9993C71.8149 66.7329 71.499 67.523 71.2992 68.3456H17.5817C17.3816 67.5229 17.0655 66.7329 16.6429 65.9993C16.2179 65.2663 15.6912 64.5972 15.0784 64.012L41.9608 17.4517C42.7667 17.6838 43.6014 17.8011 44.4401 17.8003C45.3035 17.8003 46.1378 17.6781 46.927 17.4496ZM51.022 84.97L71.4721 73.1628C71.4108 72.9701 71.356 72.7753 71.3078 72.5789H17.5702C17.5417 72.6945 17.5108 72.809 17.4778 72.9233L38.0279 84.7884C38.8577 83.9255 39.8536 83.2394 40.9556 82.7715C42.0576 82.3036 43.2429 82.0635 44.4401 82.0658C45.6791 82.0636 46.9049 82.3209 48.0385 82.8211C49.1721 83.3213 50.1884 84.0533 51.022 84.97Z" fill="#E535AB"/>
</svg>
