<svg width="89" height="99" viewBox="0 0 89 99" xmlns="http://www.w3.org/2000/svg">
  <!-- Hexagon -->
  <path
    d="M49.7899 5.21629L79.0295 22.2218C80.7308 23.2112 82.1426 24.6298 83.1239 26.3359C84.1052 28.0419 84.6215 29.9756 84.6213 31.9436V66.8109C84.621 68.9864 84.0422 71.1228 82.9442 73.0009C81.8461 74.879 80.2684 76.4313 78.3726 77.4987L49.3528 93.8398C47.4599 94.9054 45.3223 95.4604 43.1501 95.4501C40.9778 95.4398 38.8456 94.8646 36.9629 93.781L10.2381 78.3983C8.17495 77.2108 6.46123 75.5005 5.26956 73.4397C4.07789 71.379 3.45036 69.0406 3.45018 66.6601V33.5716C3.44997 31.1747 4.06273 28.8174 5.23021 26.724C6.3977 24.6306 8.08113 22.8705 10.1205 21.611L36.393 5.39263C38.4009 4.15334 40.7076 3.48238 43.067 3.45132C45.4264 3.42027 47.75 4.03028 49.7899 5.21629Z"
    fill="#F97316"
    stroke="#EA580C"
    stroke-width="6.9"
  />

  <!-- H letter -->
  <path
    d="M30 30H38V46H51V30H59V69H51V53H38V69H30V30Z"
    fill="white"
  />
</svg>
