<svg width="45" height="100" viewBox="0 0 45 100" fill="none" xmlns="http://www.w3.org/2000/svg">
<path d="M22.1455 0.272949L24.8141 5.28508C25.414 6.21001 26.064 7.0287 26.8295 7.79114C29.074 10.0076 31.1661 12.3732 33.0916 14.8719C37.6131 20.8089 40.6629 27.4022 42.8409 34.5329C44.1471 38.8888 44.8564 43.3572 44.9095 47.8756C45.1282 61.384 40.4973 72.9831 31.1605 82.6231C29.6417 84.1517 28.001 85.5542 26.2546 86.8165C25.3296 86.8165 24.8922 86.1072 24.511 85.4541C23.8167 84.2431 23.3547 82.9131 23.1486 81.5325C22.8205 79.8983 22.6048 78.264 22.7111 76.5766V75.8142C22.6361 75.6517 21.8205 0.657296 22.1455 0.272949Z" fill="#599636"/>
<path d="M22.1455 0.107501C22.0361 -0.111232 21.9268 0.0543804 21.8174 0.160623C21.8705 1.25429 21.4893 2.22922 20.8925 3.1604C20.2363 4.08533 19.3676 4.79466 18.4958 5.5571C13.6524 9.75054 9.84015 14.8158 6.78725 20.481C2.72504 28.1054 0.631444 36.2767 0.037737 44.8792C-0.234118 47.9821 1.01892 58.9313 1.99697 62.0904C4.66553 70.4773 9.45893 77.5049 15.6679 83.6045C17.1927 85.0731 18.8239 86.4355 20.5113 87.7448C21.0018 87.7448 21.055 87.3073 21.1675 86.9823C21.3825 86.287 21.5465 85.5768 21.658 84.8575L22.7517 76.6893L22.1455 0.107501Z" fill="#6CAC48"/>
<path d="M24.814 90.1352C24.9234 88.8853 25.5234 87.8479 26.1765 86.8136C25.5203 86.5417 25.0328 86.0012 24.6516 85.3981C24.3228 84.8271 24.0507 84.2253 23.8391 83.6013C23.0767 81.314 22.9142 78.9142 22.6955 76.5769V75.1614C22.4236 75.3801 22.3673 77.23 22.3673 77.5049C22.2083 79.9753 21.8805 82.4319 21.3862 84.8575C21.2237 85.8387 21.1143 86.8167 20.5112 87.6885C20.5112 87.7979 20.5112 87.9072 20.5644 88.0697C21.5455 90.957 21.8143 93.8974 21.9799 96.894V97.9877C21.9799 99.2938 21.9268 99.0189 23.0111 99.4563C23.4485 99.6188 23.936 99.6751 24.3735 100C24.7016 100 24.7547 99.7282 24.7547 99.5095L24.5922 97.7127V92.7006C24.5391 91.8257 24.7016 90.957 24.8109 90.1383L24.814 90.1352Z" fill="#C2BFBF"/>
</svg>
