<svg width="87" height="100" viewBox="0 0 87 100" fill="none" xmlns="http://www.w3.org/2000/svg">
<path d="M43.3018 0L86.6035 25V75L43.3018 100L0 75V25L43.3018 0Z" fill="#673AB8"/>
<path d="M11.7946 74.5865C17.5511 81.9546 35.8457 76.3406 53.1174 62.8463C70.389 49.3524 80.2621 32.9597 74.5057 25.5913C68.749 18.2232 50.4546 23.8375 33.183 37.3315C15.9113 50.826 6.0382 67.2185 11.7946 74.5865ZM14.254 72.665C12.3447 70.2219 13.1789 65.4248 16.8159 59.3859C20.6461 53.027 27.1478 46.007 35.1042 39.7909C43.0609 33.5747 51.4448 28.9641 58.5416 26.7861C65.2811 24.7181 70.1373 25.0693 72.0463 27.5128C73.9556 29.9563 73.1214 34.7533 69.4844 40.7922C65.6542 47.1511 59.1525 54.1708 51.1962 60.3873C43.2395 66.6035 34.8552 71.2141 27.7588 73.3917C21.0192 75.46 16.163 75.1085 14.254 72.665Z" fill="white"/>
<path d="M74.5057 74.5865C80.2625 67.2185 70.389 50.8257 53.1174 37.3315C35.8457 23.8375 17.5507 18.2232 11.7946 25.5913C6.03786 32.9593 15.9113 49.3524 33.183 62.8463C50.4546 76.3406 68.749 81.9549 74.5057 74.5865ZM72.0463 72.665C70.1373 75.1089 65.2811 75.46 58.5416 73.3917C51.4448 71.2141 43.0609 66.6035 35.1045 60.3873C27.1478 54.1708 20.6458 47.1511 16.8163 40.7922C13.1789 34.7533 12.3447 29.9566 14.2537 27.5128C16.163 25.0693 21.0193 24.7181 27.7584 26.7861C34.8552 28.9641 43.2395 33.5747 51.1958 39.7909C59.1525 46.007 65.6542 53.027 69.4841 59.3859C73.1214 65.4245 73.9557 70.2212 72.0463 72.665Z" fill="white"/>
<path d="M43.1502 56.7208C46.8129 56.7208 49.7818 53.7516 49.7818 50.0889C49.7818 46.4265 46.8129 43.4573 43.1502 43.4573C39.4875 43.4573 36.5182 46.4265 36.5182 50.0889C36.5182 53.7516 39.4875 56.7208 43.1502 56.7208Z" fill="white"/>
</svg>
