<svg width="120" height="100" viewBox="0 0 120 100" xmlns="http://www.w3.org/2000/svg">
  <g fill="#F97316">
    <path d="M18 16C19.4 14.6 21.3 13.8 23.3 13.8H102.5C105.3 13.8 106.7 17.2 104.7 19.2L90.6 33.3C89.2 34.7 87.3 35.5 85.3 35.5H6.1C3.3 35.5 1.9 32.1 3.9 30.1L18 16Z"/>
    <path d="M18 66.7C19.4 65.3 21.3 64.5 23.3 64.5H102.5C105.3 64.5 106.7 67.9 104.7 69.9L90.6 84C89.2 85.4 87.3 86.2 85.3 86.2H6.1C3.3 86.2 1.9 82.8 3.9 80.8L18 66.7Z"/>
    <path d="M90.6 41.3C89.2 39.9 87.3 39.1 85.3 39.1H6.1C3.3 39.1 1.9 42.5 3.9 44.5L18 58.6C19.4 60 21.3 60.8 23.3 60.8H102.5C105.3 60.8 106.7 57.4 104.7 55.4L90.6 41.3Z"/>
  </g>
</svg>
