<svg width="98" height="100" viewBox="0 0 98 100" fill="none" xmlns="http://www.w3.org/2000/svg">
<path d="M56.8941 98.3377C54.3395 101.555 49.1596 99.7922 49.0981 95.6843L48.198 35.6023H88.5971C95.9144 35.6023 99.9955 44.0539 95.4454 49.7847L56.8941 98.3377Z" fill="url(#paint0_linear_867_13951)"/>
<path d="M56.8941 98.3377C54.3395 101.555 49.1596 99.7922 49.0981 95.6843L48.198 35.6023H88.5971C95.9144 35.6023 99.9955 44.0539 95.4454 49.7847L56.8941 98.3377Z" fill="url(#paint1_linear_867_13951)" fill-opacity="0.2"/>
<path d="M40.464 1.6606C43.0187 -1.55687 48.1986 0.206073 48.2601 4.31396L48.6546 64.3959H8.76106C1.44348 64.3959 -2.63767 55.9443 1.91262 50.2135L40.464 1.6606Z" fill="#3ECF8E"/>
<defs>
<linearGradient id="paint0_linear_867_13951" x1="48.198" y1="48.924" x2="84.1033" y2="63.9826" gradientUnits="userSpaceOnUse">
<stop stop-color="#249361"/>
<stop offset="1" stop-color="#3ECF8E"/>
</linearGradient>
<linearGradient id="paint1_linear_867_13951" x1="32.2795" y1="27.1287" x2="48.6542" y2="57.9532" gradientUnits="userSpaceOnUse">
<stop/>
<stop offset="1" stop-opacity="0"/>
</linearGradient>
</defs>
</svg>
